<mxfile host="app.diagrams.net" modified="2022-06-11T13:05:33.829Z" agent="5.0 (Macintosh; Intel Mac OS X 10_15_7) AppleWebKit/605.1.15 (KHTML, like Gecko) Version/15.5 Safari/605.1.15" etag="6mGBPugYbpFFn5i_-3Bn" version="19.0.3" type="github">
  <diagram id="cXavkRrdtwPeBTWVCfzo" name="Page-1">
    <mxGraphModel dx="770" dy="535" grid="1" gridSize="10" guides="1" tooltips="1" connect="1" arrows="1" fold="1" page="1" pageScale="1" pageWidth="1169" pageHeight="827" math="0" shadow="0">
      <root>
        <mxCell id="0" />
        <mxCell id="1" parent="0" />
        <mxCell id="rkL-CGtH70exN3sfDx4X-1" value="fn1 start..." style="rounded=0;whiteSpace=wrap;html=1;fontFamily=Comic Sans MS;sketch=1;fillColor=#d5e8d4;strokeColor=#82b366;" vertex="1" parent="1">
          <mxGeometry x="190" y="130" width="120" height="30" as="geometry" />
        </mxCell>
        <mxCell id="rkL-CGtH70exN3sfDx4X-2" value="fn2 start..." style="rounded=0;whiteSpace=wrap;html=1;fontFamily=Comic Sans MS;sketch=1;fillColor=#d5e8d4;strokeColor=#82b366;" vertex="1" parent="1">
          <mxGeometry x="360" y="200" width="120" height="30" as="geometry" />
        </mxCell>
        <mxCell id="rkL-CGtH70exN3sfDx4X-3" value="next" style="rounded=0;whiteSpace=wrap;html=1;fontFamily=Comic Sans MS;sketch=1;fillColor=#f8cecc;strokeColor=#b85450;" vertex="1" parent="1">
          <mxGeometry x="360" y="130" width="120" height="30" as="geometry" />
        </mxCell>
        <mxCell id="rkL-CGtH70exN3sfDx4X-4" value="next" style="rounded=0;whiteSpace=wrap;html=1;fontFamily=Comic Sans MS;sketch=1;fillColor=#f8cecc;strokeColor=#b85450;" vertex="1" parent="1">
          <mxGeometry x="530" y="200" width="120" height="30" as="geometry" />
        </mxCell>
        <mxCell id="rkL-CGtH70exN3sfDx4X-5" value="fn3 start..." style="rounded=0;whiteSpace=wrap;html=1;fontFamily=Comic Sans MS;sketch=1;fillColor=#d5e8d4;strokeColor=#82b366;" vertex="1" parent="1">
          <mxGeometry x="530" y="270" width="120" height="30" as="geometry" />
        </mxCell>
        <mxCell id="rkL-CGtH70exN3sfDx4X-6" value="next" style="rounded=0;whiteSpace=wrap;html=1;fontFamily=Comic Sans MS;sketch=1;fillColor=#f8cecc;strokeColor=#b85450;" vertex="1" parent="1">
          <mxGeometry x="700" y="270" width="120" height="30" as="geometry" />
        </mxCell>
        <mxCell id="rkL-CGtH70exN3sfDx4X-7" value="return" style="rounded=0;whiteSpace=wrap;html=1;fontFamily=Comic Sans MS;sketch=1;fillColor=#d5e8d4;strokeColor=#82b366;" vertex="1" parent="1">
          <mxGeometry x="700" y="340" width="120" height="30" as="geometry" />
        </mxCell>
        <mxCell id="rkL-CGtH70exN3sfDx4X-8" value="fn3 end..." style="rounded=0;whiteSpace=wrap;html=1;fontFamily=Comic Sans MS;sketch=1;fillColor=#d5e8d4;strokeColor=#82b366;" vertex="1" parent="1">
          <mxGeometry x="530" y="414" width="120" height="30" as="geometry" />
        </mxCell>
        <mxCell id="rkL-CGtH70exN3sfDx4X-9" value="fn2 end..." style="rounded=0;whiteSpace=wrap;html=1;fontFamily=Comic Sans MS;sketch=1;fillColor=#d5e8d4;strokeColor=#82b366;" vertex="1" parent="1">
          <mxGeometry x="360" y="480" width="120" height="30" as="geometry" />
        </mxCell>
        <mxCell id="rkL-CGtH70exN3sfDx4X-10" value="fn1 end..." style="rounded=0;whiteSpace=wrap;html=1;fontFamily=Comic Sans MS;sketch=1;fillColor=#d5e8d4;strokeColor=#82b366;" vertex="1" parent="1">
          <mxGeometry x="190" y="520" width="120" height="30" as="geometry" />
        </mxCell>
        <mxCell id="rkL-CGtH70exN3sfDx4X-11" value="" style="shape=flexArrow;endArrow=classic;html=1;rounded=0;sketch=1;fontFamily=Comic Sans MS;curved=1;endWidth=14;endSize=7.77;" edge="1" parent="1">
          <mxGeometry width="50" height="50" relative="1" as="geometry">
            <mxPoint x="316" y="144" as="sourcePoint" />
            <mxPoint x="350" y="200" as="targetPoint" />
          </mxGeometry>
        </mxCell>
        <mxCell id="rkL-CGtH70exN3sfDx4X-12" value="" style="shape=flexArrow;endArrow=classic;html=1;rounded=0;sketch=1;fontFamily=Comic Sans MS;curved=1;endWidth=14;endSize=5.83;width=15;" edge="1" parent="1">
          <mxGeometry width="50" height="50" relative="1" as="geometry">
            <mxPoint x="490" y="220" as="sourcePoint" />
            <mxPoint x="520" y="270" as="targetPoint" />
          </mxGeometry>
        </mxCell>
        <mxCell id="rkL-CGtH70exN3sfDx4X-14" value="" style="shape=flexArrow;endArrow=classic;html=1;rounded=0;sketch=1;fontFamily=Comic Sans MS;curved=1;endWidth=14;endSize=5.83;width=15;" edge="1" parent="1">
          <mxGeometry width="50" height="50" relative="1" as="geometry">
            <mxPoint x="660" y="290" as="sourcePoint" />
            <mxPoint x="690" y="340" as="targetPoint" />
          </mxGeometry>
        </mxCell>
        <mxCell id="rkL-CGtH70exN3sfDx4X-15" value="" style="shape=flexArrow;endArrow=classic;html=1;rounded=0;sketch=1;fontFamily=Comic Sans MS;curved=1;endWidth=14;endSize=5.83;width=15;exitX=0;exitY=1;exitDx=0;exitDy=0;" edge="1" parent="1">
          <mxGeometry width="50" height="50" relative="1" as="geometry">
            <mxPoint x="695" y="378" as="sourcePoint" />
            <mxPoint x="655" y="408" as="targetPoint" />
          </mxGeometry>
        </mxCell>
        <mxCell id="rkL-CGtH70exN3sfDx4X-16" value="" style="shape=flexArrow;endArrow=classic;html=1;rounded=0;sketch=1;fontFamily=Comic Sans MS;curved=1;endWidth=14;endSize=5.83;width=15;exitX=0;exitY=1;exitDx=0;exitDy=0;" edge="1" parent="1">
          <mxGeometry width="50" height="50" relative="1" as="geometry">
            <mxPoint x="510" y="440" as="sourcePoint" />
            <mxPoint x="470" y="470" as="targetPoint" />
          </mxGeometry>
        </mxCell>
        <mxCell id="rkL-CGtH70exN3sfDx4X-17" value="" style="shape=flexArrow;endArrow=classic;html=1;rounded=0;sketch=1;fontFamily=Comic Sans MS;curved=1;endWidth=14;endSize=5.83;width=15;exitX=0;exitY=1;exitDx=0;exitDy=0;" edge="1" parent="1">
          <mxGeometry width="50" height="50" relative="1" as="geometry">
            <mxPoint x="360" y="520" as="sourcePoint" />
            <mxPoint x="320" y="550" as="targetPoint" />
          </mxGeometry>
        </mxCell>
      </root>
    </mxGraphModel>
  </diagram>
</mxfile>
